<mxfile host="app.diagrams.net" agent="Mozilla/5.0 (Windows NT 10.0; Win64; x64) AppleWebKit/537.36 (KHTML, like Gecko) Chrome/134.0.0.0 Safari/537.36" version="26.1.3">
  <diagram name="第 1 页" id="2hKupECqrGH3UbKjGcmm">
    <mxGraphModel dx="1434" dy="746" grid="1" gridSize="10" guides="1" tooltips="1" connect="1" arrows="1" fold="1" page="1" pageScale="1" pageWidth="827" pageHeight="1169" math="0" shadow="0">
      <root>
        <mxCell id="0" />
        <mxCell id="1" parent="0" />
        <mxCell id="I4ekwdzzsiMrsdJ5A8-8-5" value="" style="ellipse;whiteSpace=wrap;html=1;aspect=fixed;fillColor=#fad9d5;strokeColor=#ae4132;fontSize=16;" vertex="1" parent="1">
          <mxGeometry x="369.22" y="249.23" width="281.55" height="281.55" as="geometry" />
        </mxCell>
        <mxCell id="I4ekwdzzsiMrsdJ5A8-8-4" value="" style="ellipse;whiteSpace=wrap;html=1;aspect=fixed;fillColor=#fad7ac;strokeColor=#b46504;fontSize=16;" vertex="1" parent="1">
          <mxGeometry x="398.44" y="278.45" width="223.12" height="223.12" as="geometry" />
        </mxCell>
        <mxCell id="I4ekwdzzsiMrsdJ5A8-8-3" value="" style="ellipse;whiteSpace=wrap;html=1;aspect=fixed;fillColor=#d5e8d4;strokeColor=#82b366;align=left;fontSize=16;" vertex="1" parent="1">
          <mxGeometry x="426.88" y="306.88" width="166.25" height="166.25" as="geometry" />
        </mxCell>
        <mxCell id="I4ekwdzzsiMrsdJ5A8-8-2" value="" style="ellipse;whiteSpace=wrap;html=1;aspect=fixed;fillColor=light-dark(#eb7363, #ffadcd);strokeColor=none;fontColor=#ffffff;fillStyle=auto;fontSize=16;" vertex="1" parent="1">
          <mxGeometry x="447.5" y="327.5" width="125" height="125" as="geometry" />
        </mxCell>
        <mxCell id="I4ekwdzzsiMrsdJ5A8-8-1" value="" style="ellipse;whiteSpace=wrap;html=1;aspect=fixed;fillColor=#dae8fc;strokeColor=#6c8ebf;fontSize=16;" vertex="1" parent="1">
          <mxGeometry x="470" y="350" width="80" height="80" as="geometry" />
        </mxCell>
        <mxCell id="I4ekwdzzsiMrsdJ5A8-8-6" value="磁臂" style="triangle;whiteSpace=wrap;html=1;rotation=5;align=left;fillColor=#fad7ac;strokeColor=#b46504;fontSize=16;" vertex="1" parent="1">
          <mxGeometry x="140" y="360" width="300" height="20.5" as="geometry" />
        </mxCell>
        <mxCell id="I4ekwdzzsiMrsdJ5A8-8-9" value="磁头" style="text;html=1;align=center;verticalAlign=middle;resizable=0;points=[];autosize=1;strokeColor=none;fillColor=none;fontSize=16;" vertex="1" parent="1">
          <mxGeometry x="409" y="390" width="60" height="30" as="geometry" />
        </mxCell>
        <mxCell id="I4ekwdzzsiMrsdJ5A8-8-19" value="" style="endArrow=classic;html=1;rounded=0;entryX=0.82;entryY=0.251;entryDx=0;entryDy=0;entryPerimeter=0;fontSize=16;" edge="1" parent="1" target="I4ekwdzzsiMrsdJ5A8-8-5">
          <mxGeometry width="50" height="50" relative="1" as="geometry">
            <mxPoint x="690" y="210" as="sourcePoint" />
            <mxPoint x="740" y="160" as="targetPoint" />
          </mxGeometry>
        </mxCell>
        <mxCell id="I4ekwdzzsiMrsdJ5A8-8-20" value="【扇区】磁盘最小组成单位，1个扇区存储512字节" style="text;html=1;align=center;verticalAlign=middle;resizable=0;points=[];autosize=1;strokeColor=none;fillColor=none;fontSize=16;" vertex="1" parent="1">
          <mxGeometry x="520" y="168" width="380" height="30" as="geometry" />
        </mxCell>
      </root>
    </mxGraphModel>
  </diagram>
</mxfile>
